<?xml version="1.0" standalone="no"?>
<!DOCTYPE svg PUBLIC "-//W3C//DTD SVG 20010904//EN"
 "http://www.w3.org/TR/2001/REC-SVG-20010904/DTD/svg10.dtd">
<svg version="1.0" xmlns="http://www.w3.org/2000/svg"
 width="300.000000pt" height="300.000000pt" viewBox="0 0 300.000000 300.000000"
 preserveAspectRatio="xMidYMid meet">
<metadata>
Created by potrace 1.14, written by Peter Selinger 2001-2017
</metadata>
<g transform="translate(0.000000,300.000000) scale(0.100000,-0.100000)"
fill="#000000" stroke="none">
<path d="M1195 2412 c-4 -5 -49 -14 -72 -16 -11 0 -19 -4 -16 -8 4 -7 -12 -12
-29 -9 -5 0 -8 -3 -8 -9 0 -5 -6 -10 -13 -10 -25 0 -211 -163 -199 -175 6 -5
-15 -9 -33 -5 -5 1 -7 -1 -3 -5 9 -9 -42 -66 -54 -59 -5 3 -7 1 -6 -4 4 -14
-185 -201 -196 -195 -5 3 -6 1 -2 -5 4 -7 2 -12 -5 -12 -7 0 -10 -3 -7 -6 3
-3 -7 -19 -24 -36 -16 -16 -33 -41 -39 -55 -5 -13 -13 -22 -18 -19 -5 4 -7 -3
-4 -14 3 -11 1 -20 -5 -20 -5 0 -15 -27 -23 -59 -7 -33 -17 -57 -22 -54 -6 4
-7 1 -2 -7 12 -20 14 -74 3 -87 -6 -7 -6 -13 -1 -13 7 0 13 -30 16 -87 0 -7 4
-13 9 -13 4 0 8 -11 8 -25 0 -14 5 -25 10 -25 6 0 10 -9 10 -20 0 -11 5 -20
10 -20 6 0 10 -5 10 -11 0 -6 7 -17 15 -26 8 -8 13 -19 9 -24 -3 -5 -2 -8 3
-7 15 5 95 -81 87 -93 -4 -8 -3 -9 5 -5 12 8 61 -39 61 -58 0 -5 3 -7 6 -3 7
7 74 -61 74 -76 0 -5 3 -8 6 -5 7 8 74 -57 74 -71 0 -6 4 -11 9 -11 18 0 93
-79 85 -91 -4 -8 -3 -9 4 -5 7 4 23 -4 37 -18 14 -15 30 -26 36 -26 6 0 7 -5
4 -10 -4 -6 -3 -10 2 -9 22 4 34 -2 27 -13 -4 -7 -4 -10 1 -6 4 4 17 2 29 -4
11 -7 24 -13 29 -14 4 -1 10 -3 15 -4 4 -1 10 -2 15 -1 4 0 7 -3 7 -7 0 -4 8
-8 18 -9 32 -3 72 -12 83 -19 8 -5 9 -3 4 5 -5 10 -3 11 11 4 22 -11 34 -11
52 0 7 5 12 3 12 -5 0 -9 3 -9 10 2 5 8 10 12 10 9 0 -4 17 -3 38 3 20 5 43
10 50 10 6 1 12 6 12 11 0 5 7 7 15 3 8 -3 15 -2 15 2 0 10 71 47 83 44 5 -2
7 1 5 5 -3 5 6 18 19 30 13 12 23 19 23 15 1 -4 8 6 16 21 10 18 21 27 30 23
8 -3 12 -2 9 3 -3 6 3 14 12 20 10 6 14 11 8 11 -5 0 2 8 15 17 14 10 28 17
32 16 4 -2 5 4 2 12 -6 14 7 20 31 15 6 -1 7 2 3 5 -10 11 11 47 23 40 5 -4
12 1 16 11 12 31 81 96 94 88 7 -4 10 -3 5 4 -3 6 2 15 11 21 10 6 15 11 11
11 -4 0 4 12 17 26 14 15 29 23 36 18 7 -4 9 -3 6 3 -4 6 5 23 19 38 l25 27
-33 -8 c-55 -13 -139 -9 -149 7 -7 11 -9 11 -9 1 0 -7 -5 -10 -10 -7 -6 4 -7
11 -4 17 4 7 2 8 -4 4 -16 -10 -54 12 -46 26 4 6 3 8 -3 5 -11 -7 -63 35 -63
51 0 5 -9 8 -20 5 -11 -3 -17 -9 -14 -14 3 -5 -2 -9 -11 -9 -9 0 -13 -4 -10
-10 6 -9 -8 -14 -27 -11 -5 0 -7 -2 -7 -7 3 -17 -2 -35 -7 -29 -4 3 -15 -5
-26 -18 -11 -14 -24 -22 -30 -19 -6 4 -8 2 -5 -3 8 -13 -17 -36 -27 -25 -4 4
-7 2 -6 -3 5 -21 0 -36 -10 -30 -5 3 -10 -1 -10 -10 0 -9 -3 -15 -7 -13 -10 5
-62 -49 -55 -56 3 -4 -2 -6 -12 -6 -9 0 -14 -4 -11 -10 6 -9 -8 -14 -28 -11
-5 1 -6 -3 -3 -8 8 -12 -20 -34 -33 -27 -5 4 -13 1 -17 -5 -5 -8 -3 -9 6 -4 9
6 11 4 5 -4 -4 -7 -15 -11 -25 -8 -9 2 -24 0 -33 -4 -10 -6 -21 -4 -30 6 -12
11 -17 12 -20 2 -4 -9 -6 -9 -6 1 -1 6 -6 12 -12 12 -18 0 -119 102 -112 114
3 6 3 8 -2 4 -11 -11 -36 12 -28 25 3 5 2 7 -4 4 -10 -6 -119 103 -115 115 1
5 -1 7 -6 6 -11 -4 -52 35 -46 44 3 5 1 7 -4 6 -5 -2 -35 23 -67 55 -53 53
-56 59 -36 64 14 3 21 13 21 29 0 15 6 24 15 24 9 0 15 -9 15 -25 0 -16 6 -25
15 -25 16 0 18 14 6 45 -5 11 -5 28 0 37 6 10 5 27 -3 43 -9 21 -18 25 -42 23
l-30 -3 3 -67 c1 -42 -2 -69 -9 -73 -17 -11 -31 15 -26 47 2 15 -1 29 -6 30
-6 2 -4 11 5 20 9 8 13 18 10 22 -3 3 12 25 35 50 22 24 43 41 46 38 3 -3 6 0
6 6 0 12 97 112 109 112 4 0 13 11 19 25 6 14 19 25 28 25 10 0 15 3 12 6 -9
8 53 65 64 58 4 -3 8 -2 7 3 -4 22 3 34 29 47 15 8 23 15 18 16 -5 0 8 14 29
30 21 17 34 30 29 30 -5 0 -3 4 5 9 8 5 23 8 33 6 10 -2 16 0 13 5 -9 14 63 4
82 -11 14 -12 16 -12 8 0 -5 9 2 7 18 -5 15 -10 27 -25 27 -33 0 -8 3 -12 6
-8 10 10 36 -22 28 -34 -4 -8 -3 -9 4 -5 7 4 33 -14 62 -44 39 -39 54 -49 64
-41 7 6 16 7 20 3 4 -4 7 -2 6 3 -5 25 1 37 16 31 8 -3 12 -2 9 3 -3 5 4 16
15 24 11 7 17 17 12 22 -4 4 1 5 10 2 11 -4 17 -2 15 6 -1 7 3 11 10 10 7 -2
10 4 7 12 -5 13 6 20 28 16 4 0 4 7 1 16 -4 9 -2 14 3 11 11 -6 45 28 37 36
-4 3 -2 6 4 6 6 0 14 7 17 16 3 8 2 13 -3 10 -9 -6 -77 65 -73 76 1 5 -4 7
-10 6 -7 -2 -12 3 -10 10 1 8 -1 11 -5 9 -11 -7 -33 19 -25 29 4 4 1 4 -6 0
-7 -4 -15 -1 -18 8 -3 9 -13 16 -21 16 -8 0 -11 5 -8 10 3 6 -1 10 -9 10 -9 0
-16 4 -16 9 0 8 -94 57 -145 76 -34 13 -191 26 -200 17z m-367 -810 c2 -15 -2
-22 -12 -22 -11 0 -16 9 -16 26 0 31 23 28 28 -4z"/>
<path d="M2193 2356 c-13 -7 -21 -15 -18 -18 3 -3 -1 -11 -10 -18 -21 -17 -20
-70 1 -70 10 0 14 -5 10 -16 -3 -8 -2 -13 3 -10 5 3 14 -1 21 -8 6 -8 20 -13
30 -11 21 4 60 24 48 25 -5 0 1 9 12 20 27 27 25 50 -7 85 -31 33 -57 39 -90
21z"/>
<path d="M1747 2343 c-26 -7 -58 -41 -58 -61 1 -35 4 -52 9 -47 2 2 11 -3 19
-11 14 -14 76 -17 67 -3 -2 4 3 12 11 19 17 14 20 56 5 65 -6 4 -8 11 -4 16 3
5 2 9 -3 8 -20 -3 -34 2 -28 11 3 6 5 9 3 9 -2 -1 -11 -3 -21 -6z"/>
<path d="M1885 2233 c-2 -8 -10 -11 -15 -8 -6 4 -10 3 -9 -2 3 -17 -1 -36 -7
-30 -7 7 -38 -24 -55 -55 -14 -25 -18 -79 -6 -71 4 2 7 0 7 -5 0 -5 23 -33 51
-62 45 -45 57 -52 95 -54 24 -1 42 -1 40 1 -8 9 80 88 93 84 8 -2 12 0 8 6 -9
14 2 45 13 38 5 -3 3 12 -3 32 -6 21 -17 42 -24 46 -7 4 -13 15 -13 22 0 8 -3
14 -7 13 -12 -4 -52 39 -45 48 4 4 2 4 -5 0 -6 -3 -15 -2 -18 4 -10 16 -93 9
-100 -7z"/>
<path d="M2250 2136 c-14 -8 -28 -12 -31 -10 -4 2 -9 -6 -12 -17 -3 -12 -10
-19 -15 -15 -14 8 -50 -71 -44 -99 2 -14 8 -22 13 -19 5 3 9 0 9 -6 0 -13 30
-46 30 -33 0 4 5 0 11 -9 5 -10 17 -18 24 -18 8 0 15 -4 15 -10 0 -17 50 8 80
40 15 16 30 27 34 25 3 -3 4 -2 1 2 -3 3 0 12 6 20 6 7 9 26 6 43 -7 32 -70
100 -93 100 -9 0 -12 5 -9 10 8 13 5 12 -25 -4z"/>
<path d="M2423 1920 c-12 -9 -19 -20 -16 -24 4 -3 1 -6 -6 -6 -18 0 -9 -33 14
-50 18 -13 72 -23 60 -11 -3 2 4 14 15 26 18 20 19 23 5 35 -8 7 -12 17 -8 24
3 6 2 8 -2 3 -5 -4 -15 -1 -24 7 -14 13 -19 12 -38 -4z"/>
<path d="M1834 1897 c-8 -4 -20 -5 -27 -1 -6 4 -9 4 -5 -1 8 -8 -52 -61 -65
-57 -5 1 -6 -2 -2 -8 3 -5 1 -10 -5 -10 -6 0 -9 -4 -6 -8 2 -4 -8 -16 -23 -26
-44 -30 -75 -85 -75 -135 0 -37 -1 -41 -9 -23 -7 15 -19 22 -38 22 -27 0 -27
-1 -31 -65 -1 -36 -1 -70 0 -75 7 -20 22 -9 22 15 0 16 6 25 15 25 9 0 15 -9
15 -25 0 -14 6 -25 14 -25 13 0 15 38 2 59 -4 5 -2 12 4 16 6 4 7 11 4 17 -4
6 -1 9 5 7 7 -3 12 -8 11 -13 -1 -4 8 -16 20 -26 13 -11 19 -24 14 -31 -4 -8
-3 -9 4 -5 7 4 35 -16 67 -49 33 -33 68 -58 85 -62 17 -3 30 -10 30 -15 0 -5
6 -6 13 -1 6 4 19 8 27 8 8 0 21 4 28 8 6 5 17 5 22 2 6 -4 9 -2 8 2 -3 11 83
99 93 96 4 -1 5 6 2 17 -3 11 -10 17 -16 13 -6 -4 -8 0 -4 11 4 9 3 15 -2 12
-13 -8 -73 53 -65 66 4 6 3 8 -3 5 -6 -4 -16 0 -23 8 -7 8 -9 15 -5 15 4 0 1
8 -6 17 -12 15 -12 16 1 8 13 -8 13 -7 1 8 -10 12 -10 17 -2 17 8 0 10 8 6 20
-4 13 -1 22 9 26 9 3 13 10 10 16 -3 5 3 12 15 15 11 3 18 10 14 16 -4 6 0 8
10 4 12 -4 15 -2 10 11 -8 24 -73 83 -84 76 -5 -3 -9 -1 -9 4 0 11 -55 10 -76
-1z m-236 -295 c2 -15 -2 -22 -12 -22 -11 0 -16 9 -16 26 0 31 23 28 28 -4z"/>
<path d="M2115 1850 c-3 -6 -10 -8 -15 -5 -5 3 -18 -3 -30 -15 -22 -22 -35
-27 -24 -8 4 7 3 8 -5 4 -6 -4 -9 -10 -7 -14 2 -4 -2 -16 -10 -27 -8 -10 -14
-15 -14 -10 0 23 -35 -44 -38 -72 -2 -24 3 -39 23 -58 14 -15 22 -31 19 -37
-4 -7 -2 -8 4 -4 7 4 12 2 12 -3 0 -6 5 -11 10 -11 6 0 21 -9 33 -20 16 -15
29 -19 52 -15 16 4 35 7 42 7 7 1 10 4 8 8 -6 10 42 50 51 42 4 -4 4 -1 0 6
-4 7 -1 15 8 18 9 3 13 10 10 15 -3 5 -1 9 4 9 6 0 12 16 14 35 2 19 0 35 -4
35 -4 0 -8 6 -8 13 0 7 -9 18 -20 25 -11 7 -20 19 -20 28 0 8 -4 13 -8 10 -11
-7 -42 30 -34 40 4 4 1 4 -6 0 -7 -4 -19 -3 -27 4 -9 8 -15 8 -20 0z"/>
<path d="M2368 1791 c3 -9 1 -12 -6 -7 -7 4 -12 3 -12 -2 0 -4 -8 -17 -17 -28
-22 -24 -27 -44 -11 -44 6 0 9 -3 6 -6 -8 -7 23 -38 52 -54 15 -8 25 -8 34 -1
7 6 16 8 19 4 4 -3 7 1 7 10 0 10 4 17 10 17 15 0 32 40 24 58 -4 9 -7 20 -6
24 1 4 -8 10 -19 13 -11 4 -18 12 -16 18 3 8 -9 12 -33 12 -28 0 -36 -4 -32
-14z"/>
<path d="M870 1575 l0 -75 35 0 c39 0 48 17 13 22 -25 3 -33 42 -10 44 6 1 17
2 22 3 6 0 10 6 10 12 0 6 -6 9 -13 6 -20 -8 -41 9 -34 27 4 9 16 16 27 16 11
0 20 5 20 10 0 6 -16 10 -35 10 l-35 0 0 -75z"/>
<path d="M976 1642 c-5 -9 -13 -46 -22 -104 -6 -38 8 -53 20 -23 3 8 10 15 16
15 5 0 10 -7 10 -15 0 -8 5 -15 10 -15 13 0 13 9 -1 87 -10 58 -20 75 -33 55z"/>
<path d="M1039 1648 c-1 -2 -2 -36 -3 -76 l-2 -73 35 3 36 3 3 64 c3 68 -4 81
-45 81 -13 0 -23 -1 -24 -2z m46 -73 c0 -30 -5 -50 -12 -52 -10 -4 -13 11 -13
52 0 41 3 56 13 53 7 -3 12 -23 12 -53z"/>
<path d="M1139 1575 c9 -41 18 -75 21 -75 5 0 20 58 36 138 1 7 -3 11 -9 9 -7
-2 -13 -13 -15 -25 -2 -12 -8 -22 -13 -22 -5 0 -8 3 -8 8 4 23 -3 42 -14 42
-11 0 -10 -14 2 -75z"/>
<path d="M1215 1640 c-13 -21 -9 -121 6 -135 22 -20 59 -2 59 30 0 14 -4 25
-10 25 -5 0 -10 -9 -10 -20 0 -11 -7 -20 -15 -20 -12 0 -15 13 -15 55 0 55 16
76 27 35 8 -30 25 -24 21 8 -2 21 -9 28 -30 30 -14 2 -29 -2 -33 -8z"/>
<path d="M1303 1638 c-15 -25 -13 -111 3 -129 16 -18 42 -15 56 5 12 18 9 111
-4 124 -16 16 -45 15 -55 0z m43 -66 c1 -38 -3 -52 -13 -52 -13 0 -15 8 -15
50 0 49 3 61 14 58 7 -3 13 -26 14 -56z"/>
<path d="M1380 1575 l0 -75 35 0 c19 0 36 3 36 8 7 37 5 120 -3 129 -6 7 -23
13 -39 13 l-29 0 0 -75z m51 45 c1 -5 1 -26 1 -45 0 -52 -1 -55 -15 -55 -9 0
-12 16 -11 53 1 28 2 53 3 55 3 7 21 1 22 -8z"/>
<path d="M1470 1575 l0 -75 35 0 c19 0 35 5 35 10 0 6 -12 10 -26 10 -21 0
-25 4 -22 23 2 12 9 23 16 23 29 3 32 4 32 14 0 6 -12 10 -26 10 -33 0 -30 33
4 38 35 5 26 22 -13 22 l-35 0 0 -75z"/>
<path d="M2180 1498 c-14 -13 -28 -22 -32 -20 -5 1 -8 -3 -8 -8 0 -6 -16 -26
-35 -46 -35 -34 -45 -52 -24 -38 8 4 8 0 0 -15 -8 -14 -8 -21 -1 -21 5 0 10
-6 10 -14 0 -7 7 -19 15 -26 8 -7 12 -17 8 -23 -3 -5 -1 -7 4 -4 6 4 26 -7 43
-23 35 -32 83 -38 99 -11 5 7 12 13 17 14 5 1 8 5 7 9 -2 4 6 10 17 13 11 4
20 13 20 21 0 8 5 12 10 9 6 -3 11 -1 11 4 2 11 5 26 9 39 5 16 -3 46 -16 59
-8 8 -11 19 -8 25 4 6 1 9 -7 6 -8 -3 -23 7 -34 21 -20 27 -37 34 -68 33 -9 0
-15 3 -12 9 10 15 0 10 -25 -13z"/>
</g>
</svg>
